<svg xmlns="http://www.w3.org/2000/svg" viewBox="0 0 32 32"><defs><style>.cls-1{fill:#a1d8df;}.cls-2{fill:#d1e6e9;}.cls-3{fill:#68c7d3;}.cls-4{fill:#30acc2;}</style></defs><title>Hygeia</title><g id="Hygeia"><rect class="cls-1" x="13" y="18" width="2" height="10"/><path class="cls-2" d="M25,7V8c0,.34,0,.67-.05,1A11,11,0,0,1,3.05,9c0-.33,0-.66,0-1V7Z"/><path class="cls-3" d="M19.59,5H17a1,1,0,0,1-1-1h0a3,3,0,0,1,3-3h.59A3.41,3.41,0,0,1,22,2h0V4h0A3.41,3.41,0,0,1,19.59,5Z"/><path class="cls-3" d="M17.24,24.76A5.94,5.94,0,0,1,19,29H17a4,4,0,0,0-4-4H12a3,3,0,0,1,0-6h1v2H12a1,1,0,0,0,0,2h1A5.94,5.94,0,0,1,17.24,24.76Z"/><path class="cls-3" d="M29,8A13,13,0,0,1,16,21H15V19h1A11,11,0,0,0,27,8a4,4,0,0,0-4-4H18V2h5a6,6,0,0,1,6,6Z"/><path class="cls-2" d="M21,31H7a4,4,0,0,1,.54-2,4.23,4.23,0,0,1,.63-.83A4,4,0,0,1,11,27h6a4,4,0,0,1,4,4Z"/><path class="cls-1" d="M25,7V8c0,.34,0,.67-.05,1H3.05c0-.33,0-.66,0-1V7Z"/><rect class="cls-4" x="11" y="12" width="6" height="2"/><rect class="cls-4" x="11" y="12" width="6" height="2" transform="translate(27 -1) rotate(90)"/></g></svg>